<svg xmlns="http://www.w3.org/2000/svg" viewBox="0 0 62 52">
  <defs>
    <linearGradient id="a" x1="-3.645%" x2="91.62%" y1="86.892%" y2="22.008%">
      <stop offset="0%" stop-color="#FC00FF"/>
      <stop offset="52.96%" stop-color="#0B8CDF"/>
      <stop offset="100%" stop-color="#00DEC6"/>
    </linearGradient>
  </defs>
  <path fill="url(#a)" d="m67.133 31.02.021.001h-.057l.095.004-.035-.004.018.002.018.002.022.003a.835.835 0 0 1 .172.047l.02.01a.736.736 0 0 1 .069.034l.008.005.01.005.037.025.03.022.01.008.01.008.027.024.019.018a.512.512 0 0 1 .02.02l.008.01.018.02a.8.8 0 0 1 .063.09l.008.013L87.146 64.94a.73.73 0 0 1 .095.446.733.733 0 0 1-.083.43l-.018.032-9.95 16.516a.732.732 0 0 1-.173.305l-.048.041a.788.788 0 0 1-.21.177.741.741 0 0 1-.322.092H37.598a.74.74 0 0 1-.564-.263.771.771 0 0 1-.049-.066l-.02-.03-10.108-17.103a.482.482 0 0 1-.01-.017l-.025-.05-.01-.024-.009-.02a.736.736 0 0 1-.025-.08l-.004-.017a.737.737 0 0 1-.008-.04l-.006-.041a.26.26 0 0 1-.001-.012l-.001-.012a.734.734 0 0 1-.003-.045v-.04l.001-.015v.015l.004-.057.005-.038.002-.013a.603.603 0 0 1 .02-.082l.006-.017.004-.013a.729.729 0 0 1 .026-.063l.009-.019.01-.019.018-.032 19.891-33.064.011-.018a.736.736 0 0 1 .042-.058l-.053.076a.738.738 0 0 1 .583-.354l.034-.002 19.71-.325h.055Zm4.116 43.49h-7.766l4.015 7.003h7.767L71.25 74.51Zm-34.334-8.634h-8.14l9.241 15.637h27.792l-4.016-7.004H42.326a.732.732 0 0 1-.555-.253.744.744 0 0 1-.144-.165l-.02-.031-4.692-8.184Zm34.933-24.462-3.975 7.121 9.49 16.405.006.01a.734.734 0 0 1 .036.074l-.041-.084a.738.738 0 0 1 .075.549.749.749 0 0 1-.057.15l-.005.011-.018.032-4.836 8.101 3.96 6.906 9.224-15.307-13.859-23.968ZM42.384 58.297l-4.102 7.012 4.434 7.734H61.63l4.045-7.004H47.38l-.078-.004a.734.734 0 0 1-.704-.334l-.018-.032-4.196-7.372Zm24.1-9.034H58.35l9.23 15.672.012.023-.013-.023a.737.737 0 0 1 .087.229l.009.052.005.06V65.346l-.003.02-.006.059-.002.013a.728.728 0 0 1-.002.01l-.003.012a.669.669 0 0 1-.015.06l-.008.022-.007.021a.612.612 0 0 1-.033.074l-.019.035-4.257 7.37h7.932l4.621-7.743-9.218-15.932a.742.742 0 0 1-.175-.105Zm-9.446.664-8.48 14.646h17.104l-8.624-14.646ZM41.111 57.57h-8.21l-4.116 6.841h8.324l4.002-6.84Zm20.682-16.614H52.53l-9.29 15.881 4.016 7.057 9.109-15.73a.734.734 0 0 1 .72-.361l.044-.004h.034l8.588-.002-3.958-6.84Zm4.011-8.448-18.005.297-14.017 23.3h8.187l9.506-16.25a.734.734 0 0 1 .797-.345.713.713 0 0 1 .128-.018h.035l9.203-.002 4.166-6.982Zm1.294.693-4.11 6.89 4.03 6.967 3.975-7.12-3.895-6.737Z" transform="matrix(-1 0 0 1 88 -31)"/>
</svg>
