<svg xmlns="http://www.w3.org/2000/svg" xmlns:xlink="http://www.w3.org/1999/xlink" width="81" height="23">
    <defs>
        <path id="a" d="M0 0h14.339v15.991H0z"/>
        <path id="c" d="M0 0h15.526v16.318H0z"/>
        <path id="e" d="M0 0h15.526v16.318H0z"/>
        <path id="g" d="M0 0h4.703v22.673H0z"/>
    </defs>
    <g fill="none" fill-rule="evenodd">
        <g transform="translate(0 6.682)">
            <mask id="b" fill="#fff">
                <use xlink:href="#a"/>
            </mask>
            <path fill="#FFF" d="M0 5.887C0 2.051 3.623 0 7.17 0c3.502 0 7.169 1.711 7.169 5.45v9.614a.93.93 0 0 1-.933.927h-2.295a.93.93 0 0 1-.932-.927V6.808c0-2.202-.93-2.929-2.903-2.929-1.93 0-3.116.94-3.116 3.058v8.127a.93.93 0 0 1-.933.927H.933A.93.93 0 0 1 0 15.064V5.887Z" mask="url(#b)"/>
        </g>
        <path fill="#FFF" d="M64.252 12.569c0-3.836 3.622-5.887 7.169-5.887.81 0 1.627.091 2.406.277a.932.932 0 0 1 .667 1.17 11.43 11.43 0 0 1-.803 2.035c-.186.378-.605.604-1.017.509a5.1 5.1 0 0 0-1.146-.112c-1.93 0-3.116.939-3.116 3.057v8.127a.93.93 0 0 1-.933.928h-2.295a.93.93 0 0 1-.932-.928V12.57Z"/>
        <g transform="translate(15.883 6.682)">
            <mask id="d" fill="#fff">
                <use xlink:href="#c"/>
            </mask>
            <path fill="#FFF" d="M11.251 8.159c0-3.07-1.286-4.64-3.489-4.64-2.215 0-3.487 1.57-3.487 4.64 0 3.1 1.257 4.89 3.487 4.89 2.217 0 3.489-1.79 3.489-4.89M0 8.159C0 3.099 2.959 0 7.762 0c4.804 0 7.764 3.085 7.764 8.159 0 5.117-2.917 8.16-7.764 8.16C2.917 16.319 0 13.262 0 8.159" mask="url(#d)"/>
        </g>
        <path fill="#FFF" d="M43.078 7.023h2.218c.806 0 1.234.947.698 1.546l-4.125 4.61a.924.924 0 0 0-.063 1.156l4.932 6.87c.441.614 0 1.468-.76 1.468h-2.636a.936.936 0 0 1-.76-.39l-3.674-5.137a.938.938 0 0 0-1.434-.106l-.1.103a.928.928 0 0 0-.262.645v3.956c0 .513-.418.93-.934.93h-2.291a.932.932 0 0 1-.935-.93V1.967c0-.513.418-.929.935-.929h2.29c.517 0 .935.416.935.929v11.239h.258l4.996-5.856a.937.937 0 0 1 .712-.327"/>
        <g transform="translate(46.735 6.682)">
            <mask id="f" fill="#fff">
                <use xlink:href="#e"/>
            </mask>
            <path fill="#FFF" d="M11.252 8.159c0-3.07-1.287-4.615-3.489-4.615-2.216 0-3.488 1.544-3.488 4.615 0 3.1 1.258 4.89 3.488 4.89 2.216 0 3.489-1.79 3.489-4.89M0 8.159C0 3.099 2.96 0 7.763 0c4.804 0 7.763 3.085 7.763 8.159 0 5.117-2.916 8.16-7.763 8.16C2.917 16.319 0 13.262 0 8.159" mask="url(#f)"/>
        </g>
        <g transform="translate(76.297)">
            <mask id="h" fill="#fff">
                <use xlink:href="#g"/>
            </mask>
            <path fill="#FFF" d="M1.205 7.023h2.293a.93.93 0 0 1 .933.928v13.794a.93.93 0 0 1-.933.928H1.205a.93.93 0 0 1-.934-.928V7.951a.93.93 0 0 1 .934-.928M.043 2.767C-.241 1.27.925 0 2.359 0c1.286 0 2.344 1.023 2.344 2.317 0 1.498-1.45 2.645-3.019 2.21C.858 4.298.202 3.606.043 2.767" mask="url(#h)"/>
        </g>
    </g>
</svg>
