<svg xmlns="http://www.w3.org/2000/svg" xmlns:xlink="http://www.w3.org/1999/xlink" viewBox="0 0 850 850"><defs><path id="a" d="M425 624.498c110.18 0 199.498-89.318 199.498-199.498 0-110.18-89.318-199.498-199.498-199.498-110.18 0-199.498 89.318-199.498 199.498 0 110.18 89.318 199.498 199.498 199.498Z"/><path id="b" d="M425 692.783c147.892 0 267.783-119.89 267.783-267.783 0-147.892-119.89-267.783-267.783-267.783-147.892 0-267.783 119.89-267.783 267.783 0 147.892 119.89 267.783 267.783 267.783Z"/><path id="c" d="M425 757.05c183.386 0 332.05-148.664 332.05-332.05 0-183.386-148.664-332.05-332.05-332.05C241.614 92.95 92.95 241.614 92.95 425c0 183.386 148.664 332.05 332.05 332.05Z"/><path id="d" d="M425 817.301c216.662 0 392.301-175.639 392.301-392.301 0-216.662-175.639-392.301-392.301-392.301C208.338 32.699 32.699 208.338 32.699 425c0 216.662 175.639 392.301 392.301 392.301Z"/><mask id="e" width="398.996" height="398.996" x="0" y="0" fill="#fff" maskContentUnits="userSpaceOnUse" maskUnits="objectBoundingBox"><use xlink:href="#a"/></mask><mask id="f" width="535.565" height="535.565" x="0" y="0" fill="#fff" maskContentUnits="userSpaceOnUse" maskUnits="objectBoundingBox"><use xlink:href="#b"/></mask><mask id="g" width="664.101" height="664.101" x="0" y="0" fill="#fff" maskContentUnits="userSpaceOnUse" maskUnits="objectBoundingBox"><use xlink:href="#c"/></mask><mask id="h" width="784.603" height="784.603" x="0" y="0" fill="#fff" maskContentUnits="userSpaceOnUse" maskUnits="objectBoundingBox"><use xlink:href="#d"/></mask><linearGradient id="i" x1="84.95%" x2="28.943%" y1="90.267%" y2="13.108%"><stop offset="0%" stop-color="#FC00FF"/><stop offset="52.96%" stop-color="#0B8CDF"/><stop offset="100%" stop-color="#00DEC6"/></linearGradient></defs><g fill="none" fill-rule="evenodd" opacity=".552"><use xlink:href="#a" stroke="#2A2C33" stroke-dasharray="606.153" stroke-linecap="round" stroke-width="6" mask="url(#e)"/><circle cx="368.893" cy="613.575" r="4.492" stroke="#784DEE" stroke-width="4.017"/><use xlink:href="#b" stroke="#2A2C33" stroke-dasharray="500.379" stroke-linecap="round" stroke-width="6" mask="url(#f)" transform="rotate(120 425 425)"/><circle cx="310.998" cy="186.479" r="4.492" stroke="#C320F7" stroke-opacity=".457" stroke-width="4.017"/><circle cx="333.991" cy="42.291" r="4.492" stroke="#C320F7" stroke-opacity=".457" stroke-width="4.017"/><circle cx="379.282" cy="685.893" r="4.492" stroke="#02CECB" stroke-opacity=".515" stroke-width="4.017"/><use xlink:href="#c" stroke="#2A2C33" stroke-dasharray="302.219" stroke-linecap="round" stroke-width="6" mask="url(#g)" transform="rotate(98 425 425)"/><circle cx="197.868" cy="666.132" r="4.492" stroke="#0B8EDF" stroke-opacity=".538" stroke-width="4.017"/><circle cx="445.211" cy="754.5" r="4.492" stroke="#784DEE" stroke-opacity=".573" stroke-width="4.017"/><circle cx="740.772" cy="325.743" r="4.492" stroke="#2F78E5" stroke-opacity=".557" stroke-width="4.017"/><use xlink:href="#d" stroke="#2A2C33" stroke-dasharray="687.826" stroke-linecap="round" stroke-width="6" mask="url(#h)" transform="rotate(5 425 425)"/><circle cx="809.073" cy="365.893" r="4.492" stroke="#02CECB" stroke-opacity=".527" stroke-width="4.017"/><circle cx="371.249" cy="807.735" r="4.492" stroke="#D915FB" stroke-opacity=".476" stroke-width="4.017"/><circle cx="248.069" cy="144.973" r="4.492" stroke="#0A8FDE" stroke-opacity=".582" stroke-width="4.017"/><circle cx="420" cy="424" r="147" fill="#242834" fill-opacity=".515"/><path fill="url(#i)" fill-rule="nonzero" d="M369.962 491c-.062 0-.123-.003-.184-.01l-.057-.006a1.77 1.77 0 0 1-.099-.015l-.04-.008a1.553 1.553 0 0 1-.094-.021l-.049-.014c-.035-.01-.07-.02-.104-.033l-.029-.01a1.558 1.558 0 0 1-.103-.042l-.038-.017a1.58 1.58 0 0 1-.14-.072l-.06-.036a1.659 1.659 0 0 1-.24-.177 1.808 1.808 0 0 1-.19-.187l-.055-.068a1.516 1.516 0 0 1-.09-.123l-.007-.01-.044-.07a1.885 1.885 0 0 1-.02-.033l-26.043-44.061a1.882 1.882 0 0 1-.076-.137l-.007-.016a1.877 1.877 0 0 1-.13-.344l-.017-.074a1.618 1.618 0 0 1-.013-.06l-.013-.08a1.556 1.556 0 0 1-.02-.244v-.07a1.888 1.888 0 0 1 .02-.235l.005-.027c.005-.036.012-.07.02-.105l.008-.037a1.834 1.834 0 0 1 .098-.296l.02-.043c.012-.027.024-.053.038-.08l.007-.014.008-.014.047-.082 51.299-85.272.036-.058.027-.041-.063.099a1.911 1.911 0 0 1 .307-.387l.051-.046c.02-.02.042-.038.064-.056l.037-.029c.027-.021.055-.042.083-.061l.037-.025a1.632 1.632 0 0 1 .158-.094l.026-.013a1.85 1.85 0 0 1 .22-.095l.067-.022c.022-.008.044-.014.066-.02l.062-.016a1.458 1.458 0 0 1 .225-.04l.072-.007.026-.002.09-.003 50.877-.84h.05c.027 0 .055 0 .083.002h.016l.03.003a1.9 1.9 0 0 1 .2.026l.034.007.025.005.094.024a1.943 1.943 0 0 1 .12.036l.051.02c.005 0 .01.002.014.004l.029.012a1.9 1.9 0 0 1 .107.047l.047.024c.029.014.057.03.084.046l.017.01.02.012c.034.02.067.042.1.065l.013.01.028.02c.027.02.053.04.078.061l.03.026.027.024.016.013a1.878 1.878 0 0 1 .064.062l.02.021a1.537 1.537 0 0 1 .115.13l.03.039.062.088.017.027.014.02.023.038.012.022 50.038 86.533c.21.364.286.77.242 1.159.041.368-.026.75-.213 1.099l-.046.082-25.656 42.58c-.09.326-.265.627-.517.868l-.074.065a1.88 1.88 0 0 1-.158.165l-.031.028c-.061.054-.125.104-.192.15l-.038.024a1.67 1.67 0 0 1-.267.144l-.054.022a1.444 1.444 0 0 1-.081.03l-.044.015a1.565 1.565 0 0 1-.113.033l-.027.006a1.46 1.46 0 0 1-.223.04 1.996 1.996 0 0 1-.1.008l-.027.002-.044.001H369.962Zm86.784-21.844H436.72l10.357 18.063h20.026l-10.357-18.063Zm-88.542-22.263h-20.997l23.835 40.326h71.673l-10.357-18.063h-50.202a1.889 1.889 0 0 1-1.439-.663 1.86 1.86 0 0 1-.364-.416l-.049-.081-12.1-21.103Zm90.089-63.085-10.251 18.363 24.475 42.306.01.018c.02.036.04.073.058.111l-.068-.129a1.913 1.913 0 0 1 .227.626l.007.049c.005.028.008.056.01.084l.005.058a1.844 1.844 0 0 1-.004.317l-.005.042a1.58 1.58 0 0 1-.016.104l-.004.02c-.007.04-.016.079-.026.118l-.016.059a1.797 1.797 0 0 1-.162.388l-.03.05-12.468 20.893 10.212 17.81 23.788-39.478-35.742-61.809Zm-75.987 43.54-10.579 18.084 11.436 19.943h48.779l10.431-18.062h-47.182c-.069 0-.137-.003-.204-.01a1.896 1.896 0 0 1-1.812-.865l-.049-.08-10.82-19.01Zm62.155-23.3-20.98-.001 23.8 40.418.023.04.035.066-.059-.106a1.92 1.92 0 0 1 .216.541l.014.068.013.081.006.052.006.058-.012-.11c.012.082.018.164.019.247v.065a1.89 1.89 0 0 1-.004.085l-.003.034a1.837 1.837 0 0 1-.01.083l-.004.036-.006.036a2.616 2.616 0 0 1-.048.208 1.33 1.33 0 0 1-.024.078l-.012.033a1.798 1.798 0 0 1-.137.298l-.013.023-10.971 18.994h20.459l11.915-19.967-23.772-41.09a1.915 1.915 0 0 1-.451-.27Zm-24.362 1.711-21.871 37.773h44.112l-22.241-37.773Zm-41.077 19.711H357.85l-10.613 17.642h21.465l10.32-17.642Zm53.341-42.846h-23.892l-23.959 40.953 10.36 18.201 23.49-40.568a1.893 1.893 0 0 1 1.852-.932l.117-.01.09-.001 22.148-.001-10.206-17.642Zm10.342-21.788-46.433.767-36.147 60.086h21.109l24.518-41.909a1.894 1.894 0 0 1 2.055-.89c.107-.024.217-.04.33-.044l.09-.003h23.732l10.746-18.007Zm3.339 1.789-10.602 17.765 10.395 17.969 10.251-18.364-10.044-17.37Z" opacity=".484" transform="matrix(-1 0 0 1 840 0)"/></g></svg>