<svg xmlns="http://www.w3.org/2000/svg" viewBox="0 0 15 14">
  <path d="M13.125.813c.508 0 .947.186 1.318.557.371.37.557.81.557 1.318v9.375c0 .508-.186.947-.557 1.318-.37.371-.81.557-1.318.557H1.875c-.508 0-.947-.186-1.318-.557A1.802 1.802 0 0 1 0 12.063V2.688c0-.508.186-.947.557-1.318.37-.371.81-.557 1.318-.557h11.25Zm.469 1.875c0-.313-.156-.469-.469-.469h-2.578v2.578h3.047V2.688Zm-7.735 5.86h3.282V6.203H5.859v2.343Zm3.282 1.406H5.859v2.578h3.282V9.954ZM4.453 8.547V6.204H1.406v2.343h3.047Zm1.406-3.75h3.282V2.22H5.859v2.578Zm4.688 1.407v2.343h3.047V6.204h-3.047ZM1.875 2.219c-.313 0-.469.156-.469.469v2.11h3.047V2.218H1.875Zm-.469 9.844c0 .313.157.469.469.469h2.578V9.954H1.406v2.109Zm11.719.469c.313 0 .469-.156.469-.469v-2.11h-3.047v2.579h2.578Z"/>
</svg>
