<svg xmlns="http://www.w3.org/2000/svg" viewBox="0 0 16 16">
  <path d="M11.134 10.311a.678.678 0 0 1 .498-.205c.196 0 .362.068.498.205a.678.678 0 0 1 .205.498v3.281c0 .45-.16.835-.483 1.158a1.579 1.579 0 0 1-1.157.483H1.789c-.45 0-.835-.161-1.158-.483a1.579 1.579 0 0 1-.483-1.158V5.184c0-.45.161-.835.483-1.157a1.579 1.579 0 0 1 1.158-.484h3.28c.196 0 .362.069.499.206a.678.678 0 0 1 .205.498.678.678 0 0 1-.205.498.678.678 0 0 1-.498.205H1.789c-.157 0-.235.078-.235.234v8.906c0 .157.078.235.235.235h8.906c.156 0 .234-.078.234-.235v-3.28c0-.196.069-.362.205-.499Zm3.31-9.58c.196 0 .362.068.499.205a.678.678 0 0 1 .205.498v4.219a.678.678 0 0 1-.205.498.678.678 0 0 1-.498.205.678.678 0 0 1-.498-.205.678.678 0 0 1-.205-.498v-2.52L6.505 10.37a.678.678 0 0 1-.498.205.678.678 0 0 1-.498-.205.678.678 0 0 1-.205-.498c0-.196.069-.362.205-.498l7.237-7.237h-2.52a.678.678 0 0 1-.498-.205.678.678 0 0 1-.205-.498c0-.195.068-.361.205-.498a.678.678 0 0 1 .498-.205h4.219Z"/>
</svg>
