<svg xmlns="http://www.w3.org/2000/svg" viewBox="0 0 28 30">
  <defs>
    <clipPath id="a">
      <path d="M1395 0v1386H0V0h1395Z"/>
    </clipPath>
    <clipPath id="b">
      <path d="m15.703.655 8.37 4.832a4.889 4.889 0 0 1 2.444 4.234v9.664c0 1.747-.932 3.36-2.445 4.234l-8.37 4.832a4.889 4.889 0 0 1-4.888 0l-8.37-4.832A4.889 4.889 0 0 1 0 19.385V9.721c0-1.747.932-3.36 2.444-4.234l8.37-4.832a4.889 4.889 0 0 1 4.889 0Zm-3.89 1.732L3.445 7.219A2.889 2.889 0 0 0 2 9.721v9.664c0 1.032.55 1.986 1.444 2.502l8.37 4.832a2.889 2.889 0 0 0 2.889 0l8.37-4.832a2.889 2.889 0 0 0 1.444-2.502V9.721c0-1.032-.551-1.986-1.445-2.502l-8.37-4.832a2.889 2.889 0 0 0-2.888 0Zm-.16 7.007v4.15h3.378v-4.15h3.14v10.852h-3.14v-4.198h-3.379v4.198h-3.14V9.394h3.14Z"/>
    </clipPath>
  </defs>
  <g clip-path="url(#a)" transform="translate(-27 -146)">
    <g clip-path="url(#b)" transform="translate(27.742 146.447)">
      <path fill="#FFF" d="M0 0h26.517v29.106H0V0z"/>
    </g>
  </g>
</svg>
