<svg xmlns="http://www.w3.org/2000/svg" viewBox="0 0 14 16">
  <path d="M13.125 3.014V4.36c0 .586-.64 1.09-1.919 1.51-1.28.419-2.827.629-4.643.629-1.817 0-3.365-.21-4.644-.63C.639 5.45 0 4.947 0 4.361V3.014c0-.586.64-1.09 1.919-1.51 1.28-.419 2.827-.629 4.644-.629 1.816 0 3.364.21 4.643.63 1.28.42 1.919.923 1.919 1.509Zm0 3.017V9.05c0 .586-.64 1.089-1.919 1.509-1.28.42-2.827.63-4.643.63-1.817 0-3.365-.21-4.644-.63C.639 10.138 0 9.635 0 9.048V6.032c1.387.957 3.574 1.436 6.563 1.436 2.988 0 5.175-.479 6.562-1.436Zm0 4.688v3.017c0 .586-.64 1.09-1.919 1.51-1.28.419-2.827.629-4.643.629-1.817 0-3.365-.21-4.644-.63C.639 14.825 0 14.322 0 13.736V10.72c1.387.957 3.574 1.435 6.563 1.435 2.988 0 5.175-.478 6.562-1.435Z"/>
</svg>
