<?xml version="1.0" standalone="no"?>
<!DOCTYPE svg PUBLIC "-//W3C//DTD SVG 20010904//EN"
 "http://www.w3.org/TR/2001/REC-SVG-20010904/DTD/svg10.dtd">
<svg version="1.0" xmlns="http://www.w3.org/2000/svg"
 width="338.000000pt" height="338.000000pt" viewBox="0 0 338.000000 338.000000"
 preserveAspectRatio="xMidYMid meet">
<metadata>
Created by potrace 1.14, written by Peter Selinger 2001-2017
</metadata>
<g transform="translate(0.000000,338.000000) scale(0.100000,-0.100000)"
fill="#000000" stroke="none">
<path d="M1600 3363 c-30 -7 -86 -32 -125 -55 -38 -22 -86 -50 -105 -60 -19
-11 -150 -87 -290 -168 -140 -81 -271 -157 -290 -168 -524 -300 -493 -280
-555 -373 -56 -85 -55 -80 -53 -874 2 -509 6 -736 14 -750 6 -11 19 -37 30
-59 35 -72 98 -120 362 -273 141 -81 266 -153 277 -159 11 -6 43 -24 71 -41
27 -17 70 -41 95 -55 24 -14 73 -43 109 -63 36 -21 83 -48 105 -60 22 -12 99
-57 170 -98 141 -82 210 -106 293 -101 90 5 113 16 437 204 50 29 106 62 125
73 89 50 130 74 197 114 40 24 77 43 82 43 5 0 11 3 13 8 2 4 17 14 33 23 17
9 113 64 215 124 102 59 194 113 205 119 41 22 93 72 123 116 62 93 61 77 59
877 l-2 728 -25 55 c-50 111 -97 149 -383 309 -21 12 -48 28 -60 35 -120 75
-901 516 -930 526 -56 18 -135 19 -197 3z"/>
</g>
</svg>
