<svg xmlns="http://www.w3.org/2000/svg" width="20" height="20">
    <g fill="none" fill-rule="evenodd">
        <path fill="#000" d="M0 0h20v20H0z"/>
        <rect width="20" height="20" fill="#FFF" rx="3"/>
        <path fill="#000" fill-rule="nonzero" d="M8.068 15.284c-1.68.12-2.52-.624-2.52-2.232v-1.776c0-.328-.076-.54-.228-.636-.152-.096-.392-.132-.72-.108v-1.5c.328.024.568-.012.72-.108.152-.096.228-.308.228-.636V6.512c0-1.608.84-2.352 2.52-2.232v1.488c-.336-.04-.582-.008-.738.096-.156.104-.234.32-.234.648v1.776c0 .728-.24 1.224-.72 1.488.48.272.72.772.72 1.5v1.776c0 .328.078.544.234.648.156.104.402.136.738.096v1.488ZM12.24 15.284v-1.488c.336.04.582.008.738-.096.156-.104.234-.32.234-.648v-1.776c0-.728.24-1.228.72-1.5-.48-.264-.72-.76-.72-1.488V6.512c0-.328-.078-.544-.234-.648-.156-.104-.402-.136-.738-.096V4.28c1.68-.12 2.52.624 2.52 2.232v1.776c0 .328.076.54.228.636.152.096.392.132.72.108v1.5c-.328-.024-.568.012-.72.108-.152.096-.228.308-.228.636v1.776c0 1.608-.84 2.352-2.52 2.232Z"/>
    </g>
</svg>
